<svg xmlns="http://www.w3.org/2000/svg" class="editable-svg logo replaced-svg" style="enable-background:new 0 0 289.9 289.9" viewBox="0 0 289.9 289.9"><path d="M267.3 167.5c-79.9 0-144.9-65-144.9-144.9C122.4 10.1 132.5 0 145 0s22.6 10.1 22.6 22.6c0 55 44.8 99.8 99.8 99.8 12.5 0 22.6 10.1 22.6 22.6s-10.2 22.5-22.7 22.5z" style="fill:#fa7800"/><path d="M144.9 289.9c-12.5 0-22.6-10.1-22.6-22.6 0-55-44.8-99.8-99.8-99.8C10.1 167.5 0 157.4 0 145s10.1-22.6 22.6-22.6c79.9 0 145 65 145 144.9-.1 12.5-10.2 22.6-22.7 22.6z" style="fill:#ffaf44"/><path d="M144.9 289.9c-12.5 0-22.6-10.1-22.6-22.6 0-79.9 65-144.9 144.9-144.9 12.5 0 22.6 10.1 22.6 22.6s-10.1 22.6-22.6 22.6c-55 0-99.8 44.8-99.8 99.8.1 12.4-10 22.5-22.5 22.5z" style="fill:#e91889"/><path d="M22.6 167.5C10.1 167.5 0 157.4 0 144.9s10.1-22.6 22.6-22.6c55 0 99.8-44.8 99.8-99.8C122.4 10 132.5-.1 145-.1s22.6 10.1 22.6 22.6c-.1 80-65.1 145-145 145z" style="fill:#6020d6"/><path d="M167.5 22.6c0-12.5-10.1-22.6-22.6-22.6s-22.6 10.1-22.6 22.6c0 28.5 8.3 55.1 22.6 77.6 14.3-22.5 22.6-49.1 22.6-77.6z" style="fill:#7f40bf"/><path d="M22.6 122.4C10.1 122.4 0 132.5 0 144.9s10.1 22.6 22.6 22.6c28.5 0 55.1-8.3 77.6-22.6-22.5-14.2-49.1-22.5-77.6-22.5z" style="fill:#bb67c8"/><path d="M267.3 122.4c-28.5 0-55.1 8.3-77.6 22.6 22.4 14.3 49 22.6 77.6 22.6 12.5 0 22.6-10.1 22.6-22.6s-10.1-22.6-22.6-22.6z" style="fill:#ff0062"/><path d="M122.4 267.3c0 12.5 10.1 22.6 22.6 22.6s22.6-10.1 22.6-22.6c0-28.5-8.3-55.1-22.6-77.6-14.3 22.5-22.6 49.1-22.6 77.6z" style="fill:#ff337e"/></svg>